<svg xmlns="http://www.w3.org/2000/svg" viewBox="0 0 17.5 17.5"><path d="M5.26 12.72h7.49v.17a.75.75 0 01-.75.75H6a.75.75 0 01-.75-.75v-.17h.01zM12.08 8.46H5.94a.52.52 0 00-.54.51v3.47h7.21V8.97a.52.52 0 00-.53-.51z" fill="#31922e"/><path d="M15.35.75v3.49a8 8 0 101.41 4.51" fill="none" stroke="#31922e" stroke-linecap="square" stroke-linejoin="bevel" stroke-width="1.5"/><path d="M6.06 8.18h1.1l-.13-.2a2.07 2.07 0 01.24-2.59 2 2 0 013.15.36l.47.73a.48.48 0 00.66.14.48.48 0 00.14-.66l-.4-.62a3.08 3.08 0 00-3.92-1.17 3 3 0 00-1.31 4.01z" fill="#31922e"/></svg>
