<svg xmlns="http://www.w3.org/2000/svg" viewBox="0 0 12.23 16"><path d="M11.02 7.08H9.43v-2.2a3.32 3.32 0 10-6.64 0v2.2H1.23v-2.2a4.88 4.88 0 119.76 0zM0 14.49h12.23v.75a.75.75 0 01-.75.75H.75a.75.75 0 01-.75-.74v-.76z" fill="#2e3192"/><path d="M3.75 10.9h-.43l.23.38-.2.12-.23-.4-.22.39-.21-.12.23-.38h-.45v-.22h.45l-.23-.39.21-.12.22.39.23-.39.2.12-.23.39h.43zM5.77 10.9h-.44l.23.38-.2.12-.23-.4-.22.39-.21-.12.23-.38h-.44v-.22h.45l-.23-.39.21-.12.22.39.23-.39.2.12-.23.39h.43zM7.78 10.9h-.43l.23.38-.2.12-.23-.4-.22.39-.21-.12.23-.38H6.5v-.22h.45l-.23-.39.21-.12.22.39.23-.39.2.12-.23.39h.43zM9.8 10.9h-.43l.23.38-.2.12-.24-.4-.22.39-.21-.12.23-.38h-.44v-.22h.45l-.23-.39.21-.12.22.39.23-.39.2.12-.23.39h.43z" fill="#13100d"/><path d="M12.02 14H.23V8.36a.85.85 0 01.87-.83h10a.85.85 0 01.87.83zm-9.58-1.81h7.27a.5.5 0 00.5-.5V9.6a.5.5 0 00-.5-.5H2.44a.5.5 0 00-.5.5v2.09a.5.5 0 00.5.5z" fill="#2e3192"/></svg>
