<svg xmlns="http://www.w3.org/2000/svg" viewBox="0 0 16 16"><path d="M15.19 14.99v-4.26a.33.33 0 00-.22-.24h-4.36l1.64 1.65c.44.43.45.45 0 .82a6.34 6.34 0 01-6.53 1.13A6.19 6.19 0 011.6 9.24c-.07-.31-.07-.64-.15-1a.41.41 0 00-.28-.25c-.27 0-.55.05-.82 0S0 8.12 0 8.38a7.64 7.64 0 001.18 3.84 8 8 0 0012.14 1.77c.39-.35.39-.35.76 0l1 1zM.78.99v4.22c0 .22.11.29.31.29h4.3L5 5.1c-.47-.46-.93-.93-1.41-1.38-.22-.21-.22-.36 0-.57a6.19 6.19 0 013.48-1.6 6.38 6.38 0 016.16 2.56 6 6 0 011.23 3.25c0 .6 0 .6.66.6h.08c.85 0 .85 0 .75-.86A8 8 0 008.86.04a7.76 7.76 0 00-6.25 2c-.28.25-.43.22-.65 0S1.24 1.31.89.93z" fill="#92312e"/><path d="M8 9.46a.75.75 0 01-.75-.75L7 4.83a1 1 0 011-1 1 1 0 011 1l-.26 3.88a.75.75 0 01-.74.75z" fill="#92312e"/><circle cx="7.99" cy="11.24" r=".92" fill="#92312e"/></svg>
