<?xml version="1.0" encoding="UTF-8" standalone="no"?>
<svg
   xmlns:dc="http://purl.org/dc/elements/1.1/"
   xmlns:cc="http://creativecommons.org/ns#"
   xmlns:rdf="http://www.w3.org/1999/02/22-rdf-syntax-ns#"
   xmlns:svg="http://www.w3.org/2000/svg"
   xmlns="http://www.w3.org/2000/svg"
   xmlns:sodipodi="http://sodipodi.sourceforge.net/DTD/sodipodi-0.dtd"
   xmlns:inkscape="http://www.inkscape.org/namespaces/inkscape"
   id="QR_Code_EviCypher"
   data-name="QR Code EviCypher"
   viewBox="0 0 525 520"
   version="1.1"
   sodipodi:docname="qr.svg"
   inkscape:version="1.0.2 (e86c870879, 2021-01-15)">
  <metadata
     id="metadata23">
    <rdf:RDF>
      <cc:Work
         rdf:about="">
        <dc:format>image/svg+xml</dc:format>
        <dc:type
           rdf:resource="http://purl.org/dc/dcmitype/StillImage" />
      </cc:Work>
    </rdf:RDF>
  </metadata>
  <defs
     id="defs21" />
  <sodipodi:namedview
     pagecolor="#ffffff"
     bordercolor="#666666"
     borderopacity="1"
     objecttolerance="10"
     gridtolerance="10"
     guidetolerance="10"
     inkscape:pageopacity="0"
     inkscape:pageshadow="2"
     inkscape:window-width="1920"
     inkscape:window-height="1016"
     id="namedview19"
     showgrid="false"
     inkscape:zoom="1.6461538"
     inkscape:cx="400.05358"
     inkscape:cy="289.22976"
     inkscape:window-x="1920"
     inkscape:window-y="27"
     inkscape:window-maximized="1"
     inkscape:current-layer="QR_Code_EviCypher" />
  <title
     id="title2">qrcode_encryption_cards_black_by_evicypher_technology_from_freemindtronic_andorra</title>
  <path
     d="M0,0V224.3H224.3V0ZM146.63,146.63h-69v-69h69Z"
     style="fill:#2e3192;fill-opacity:1"
     id="path4" />
  <path
     d="M300.38,1v224.3h224.3V1ZM447,147.6h-69v-69h69Z"
     style="fill:#2e3192;fill-opacity:1"
     id="path6" />
  <path
     d="M0,295.7V520H224.3V295.7ZM146.63,442.33h-69v-69h69Z"
     style="fill:#2e3192;fill-opacity:1"
     id="path8" />
  <rect
     x="488.81"
     y="483.81"
     width="36.19"
     height="36.19"
     style="fill:#2e3192;fill-opacity:1"
     id="rect10" />
  <polygon
     points="476.31 295.7 476.31 351.24 389.01 351.24 389.01 295.7 300.7 295.7 300.7 520 375.72 520 375.72 407.85 476.31 407.82 476.31 443.5 525 443.54 525 295.7 476.31 295.7"
     style="fill:#2e3192;fill-opacity:1"
     id="polygon12" />
  <polygon
     points="416.02 520 474.26 520 474.26 483.79 452.21 483.79 452.21 424.51 416.02 424.5 416.02 520"
     style="fill:#2e3192;fill-opacity:1"
     id="polygon14" />
  <rect
     x="416.02"
     y="295.7"
     width="36.19"
     height="36.19"
     style="fill:#2e3192;fill-opacity:1"
     id="rect16" />
</svg>
