<svg data-name="Calque 124" xmlns="http://www.w3.org/2000/svg" viewBox="0 0 525 520"><path d="M498.9 164.25l-38.35-29.44v-32.32a34 34 0 00-34.08-33.85h-52.13l-71.7-55a66 66 0 00-80.28 0l-71.7 55H98.53a34 34 0 00-34.08 33.85v32.32L26.1 164.25A67.31 67.31 0 000 217.36v235.88C0 490.05 29.72 520 66.24 520h392.52c36.53 0 66.24-29.95 66.24-66.76V217.36a67.31 67.31 0 00-26.1-53.11zm-256.61-125a33.24 33.24 0 0140.42 0L321 68.64H204zM94.09 153v-50.5a4.44 4.44 0 014.44-4.42h327.94a4.44 4.44 0 014.44 4.42v169.33L301.63 375.92a62.86 62.86 0 01-78.31 0L94.09 272.14zM32.6 217.36A34.8 34.8 0 0146 189.87l18.42-14.14v72.6L32.6 222.75zm459.8 235.88c0 19-15.09 34.38-33.65 34.38H66.24c-18.55 0-33.65-15.42-33.65-34.38V264.39L64.45 290l29.63 23.8 108.73 87.35a95.78 95.78 0 00119.33-.06l108.76-87.56 29.63-23.86L492.4 264zm0-230.91L460.55 248v-72.26L479 189.88a34.8 34.8 0 0113.44 27.48z"/><path d="M319.79 209.07h-8.89v-24.4a49.8 49.8 0 00-2.11-14.35 50.69 50.69 0 00-98.27 5.14 50 50 0 00-.87 9.21v24.41h-8.05a17.77 17.77 0 00-17.78 17.66v62.68a17.77 17.77 0 0017.78 17.66h118.19a17.77 17.77 0 0017.78-17.66v-62.68a17.77 17.77 0 00-17.78-17.67zm-32.6 0h-53.83v-24.4a26.92 26.92 0 0153.83 0z" data-name="Calque 125"/></svg>