<svg id="Calque_4_-_copie" data-name="Calque 4 - copie" xmlns="http://www.w3.org/2000/svg" viewBox="0 0 12.23 15.99">
  <title>decrypt_icon_evipost_by_freemindtronic_16x16px</title>
  <path d="M0,14.48H12.23a0,0,0,0,1,0,0v.75a.75.75,0,0,1-.75.75H.75A.75.75,0,0,1,0,15.24v-.76a0,0,0,0,1,0,0Z" style="fill: #2e3192"/>
  <path d="M3.23,7.08H5l-.29-.55a3.38,3.38,0,0,1,.73-4.18,3.32,3.32,0,0,1,5.07,1l.67,1.25a.78.78,0,0,0,1.06.32h0a.78.78,0,0,0,.32-1.06L12,2.76A5,5,0,0,0,5.74.36,4.88,4.88,0,0,0,3.23,7.08Z" transform="translate(-1.98 -0.01)" style="fill: #2e3192"/>
  <path d="M13.11,7.53h-10a.85.85,0,0,0-.87.83V14H14V8.36A.85.85,0,0,0,13.11,7.53Zm-6,5.3L5.67,10.75l.52-.41.95.58,3.15-2.19.3.29Z" transform="translate(-1.98 -0.01)" style="fill: #2e3192"/>
</svg>
