<svg id="Calque_4" data-name="Calque 4" xmlns="http://www.w3.org/2000/svg" viewBox="0 0 12.23 16">
  <title>encrypt_icon_evipost_by_freemindtronic_16x16px</title>
  <path d="M13,7.08H11.41V4.88a3.32,3.32,0,1,0-6.64,0v2.2H3.21V4.88a4.88,4.88,0,1,1,9.76,0Z" transform="translate(-1.98 0)" style="fill: #2e3192"/>
  <path d="M0,14.49H12.23a0,0,0,0,1,0,0v.75a.75.75,0,0,1-.75.75H.75A.75.75,0,0,1,0,15.25v-.76a0,0,0,0,1,0,0Z" style="fill: #2e3192"/>
  <path d="M5.73,10.9H5.3l.23.38-.2.12L5.1,11l-.22.39-.21-.12.23-.38H4.45v-.22H4.9l-.23-.39.21-.12.22.39.23-.39.2.12-.23.39h.43Z" transform="translate(-1.98 0)" style="fill: #13100d"/>
  <path d="M7.75,10.9H7.31l.23.38-.2.12L7.11,11l-.22.39-.21-.12.23-.38H6.47v-.22h.45l-.23-.39.21-.12.22.39.23-.39.2.12-.23.39h.43Z" transform="translate(-1.98 0)" style="fill: #13100d"/>
  <path d="M9.76,10.9H9.33l.23.38-.2.12L9.13,11l-.22.39-.21-.12.23-.38H8.48v-.22h.45l-.23-.39.21-.12.22.39.23-.39.2.12-.23.39h.43Z" transform="translate(-1.98 0)" style="fill: #13100d"/>
  <path d="M11.78,10.9h-.43l.23.38-.2.12L11.14,11l-.22.39-.21-.12.23-.38H10.5v-.22h.45l-.23-.39.21-.12.22.39.23-.39.2.12-.23.39h.43Z" transform="translate(-1.98 0)" style="fill: #13100d"/>
  <path d="M14,14H2.21V8.36a.85.85,0,0,1,.87-.83h10a.85.85,0,0,1,.87.83ZM4.42,12.19h7.27a.5.5,0,0,0,.5-.5V9.6a.5.5,0,0,0-.5-.5H4.42a.5.5,0,0,0-.5.5v2.09A.5.5,0,0,0,4.42,12.19Z" transform="translate(-1.98 0)" style="fill: #2e3192"/>
</svg>
