<svg id="Calque_1_-_copie" data-name="Calque 1 - copie" xmlns="http://www.w3.org/2000/svg" viewBox="0 0 380.98 373.45">
  <title>logo_text_evicypher_by_freemindtronic_white</title>
  <g>
    <path d="M27.33,290.65v7.13H1.21V254.09H27.08v7.2H10v10.55H25.64V279H10v11.67Z" transform="translate(0 -0.02)" style="fill: #fff"/>
    <path d="M64.36,297.78H53.55L38.33,254.09h9.43l9.31,28.11q1.15,3.26,2.11,7,1.06-4.22,2.21-7.68l9.05-27.44H79.2Z" transform="translate(0 -0.02)" style="fill: #fff"/>
    <path d="M100.85,297.78H92V254.09h8.83Z" transform="translate(0 -0.02)" style="fill: #fff"/>
    <path d="M149.91,289l.32,7.71a39.1,39.1,0,0,1-9.95,1.44,31.94,31.94,0,0,1-9.47-1.34,21.86,21.86,0,0,1-7.66-4.11,18.26,18.26,0,0,1-5.08-6.86,23.52,23.52,0,0,1-1.78-9.43,26.84,26.84,0,0,1,1.6-9.56,19.11,19.11,0,0,1,4.65-7.15,19.68,19.68,0,0,1,7.34-4.4,29.44,29.44,0,0,1,9.59-1.47A34.54,34.54,0,0,1,150,255.66l-.7,7.48a19.19,19.19,0,0,0-9.37-2.37,15.12,15.12,0,0,0-7.55,1.84,12.48,12.48,0,0,0-5,5.13,16,16,0,0,0-1.74,7.58,17.12,17.12,0,0,0,1.84,8,13.21,13.21,0,0,0,5.23,5.5,15.62,15.62,0,0,0,7.93,2A26.7,26.7,0,0,0,149.91,289Z" transform="translate(0 -0.02)" style="fill: #fff"/>
    <path d="M183.64,297.78h-8.83V280.35l-16-26.26H169.1l9.38,16.31a16.26,16.26,0,0,1,1,2q.32-.8.89-2L190,254.09h9.43l-15.77,26Z" transform="translate(0 -0.02)" style="fill: #fff"/>
    <path d="M220.64,281.21v16.57h-8.83V254.09h12a35.59,35.59,0,0,1,6.7.58,14.28,14.28,0,0,1,5.42,2.24,12.33,12.33,0,0,1,3.87,4.54,13,13,0,0,1,1.41,5.95,14.29,14.29,0,0,1-1.31,6.33,11.72,11.72,0,0,1-3.58,4.37,15.19,15.19,0,0,1-5.34,2.46,26.29,26.29,0,0,1-6.52.78Q223.13,281.34,220.64,281.21Zm0-6.75q2.3,0,4.21-.19a12.06,12.06,0,0,0,3.44-.83,5.59,5.59,0,0,0,2.51-2.08,6.61,6.61,0,0,0,1-3.77,6,6,0,0,0-1.6-4.62,7.13,7.13,0,0,0-3.82-1.79,44.93,44.93,0,0,0-5.71-.4Z" transform="translate(0 -0.02)" style="fill: #fff"/>
    <path d="M289.36,297.78h-8.83V279h-17.4v18.81h-8.83V254.09h8.83v17.75h17.4V254.09h8.83Z" transform="translate(0 -0.02)" style="fill: #fff"/>
    <path d="M332.5,290.65v7.13H306.37V254.09h25.87v7.2h-17v10.55h15.61V279H315.2v11.67Z" transform="translate(0 -0.02)" style="fill: #fff"/>
    <path d="M357,297.78h-8.92V254.09h14.34a30.5,30.5,0,0,1,7.86.94,11.05,11.05,0,0,1,5.71,3.49,10.56,10.56,0,0,1,2.18,7.08,10.2,10.2,0,0,1-2.37,6.92,10.34,10.34,0,0,1-6.49,3.37,6.49,6.49,0,0,1,3.2,2.33,23.27,23.27,0,0,1,2.17,4.29l6.3,15.26h-9.82l-4.8-12.38a11.76,11.76,0,0,0-2.08-3.85,5.18,5.18,0,0,0-2.7-1.54,21.92,21.92,0,0,0-4.59-.37Zm-.06-24.88h3.93a10.19,10.19,0,0,0,5.64-1.44,5.08,5.08,0,0,0,2.22-4.61q0-5.95-7.13-5.95h-4.67Z" transform="translate(0 -0.02)" style="fill: #fff"/>
  </g>
  <g>
    <line x1="0.58" y1="315.22" x2="380.98" y2="315.22" style="fill: #fff;stroke: #d5d300;stroke-miterlimit: 10"/>
    <rect x="0.58" y="312.22" width="380.4" height="6" style="fill: #fff"/>
  </g>
  <g>
    <path d="M4.39,328.63v12.54a27.45,27.45,0,0,1-.14,2.76,6.82,6.82,0,0,1,3.1-3.27,10.15,10.15,0,0,1,5-1.24,10.28,10.28,0,0,1,4.19.83,8.93,8.93,0,0,1,3.24,2.42,11,11,0,0,1,2.07,3.79,16.12,16.12,0,0,1,.71,5,17,17,0,0,1-.71,5.07,11.37,11.37,0,0,1-2.08,3.93,9.05,9.05,0,0,1-3.27,2.52,10,10,0,0,1-4.19.86,10,10,0,0,1-4.86-1.15,8,8,0,0,1-3.26-3.22v4H0V328.63Zm7.06,14.52a6.14,6.14,0,0,0-3.57,1.11,7.36,7.36,0,0,0-2.5,3.05,10.78,10.78,0,0,0,0,8.58,7.38,7.38,0,0,0,2.46,3.05,5.91,5.91,0,0,0,3.48,1.11A5.71,5.71,0,0,0,14.7,359a7.09,7.09,0,0,0,2.37-3,10.77,10.77,0,0,0,.85-4.34,9.8,9.8,0,0,0-1.78-6.1A5.61,5.61,0,0,0,11.45,343.15Z" transform="translate(0 -0.02)" style="fill: #fff"/>
    <path d="M46.94,339.82l-8.41,23.4q-1.32,3.64-2.23,5.51A9.42,9.42,0,0,1,33.58,372a7.34,7.34,0,0,1-4.68,1.43,12.21,12.21,0,0,1-2.69-.37l.24-3.52a6,6,0,0,0,2.08.43,4.08,4.08,0,0,0,3.35-1.56,11.42,11.42,0,0,0,2-4l-9.09-24.63h4.75l5.27,14.92A24.35,24.35,0,0,1,36,359.63a25.85,25.85,0,0,1,1-3.78l5.57-16Z" transform="translate(0 -0.02)" style="fill: #fff"/>
    <path d="M82,331.2v4H69.45v9.61h12v3.92h-12v14.76h-4.6V331.2Z" transform="translate(0 -0.02)" style="fill: #fff"/>
    <path d="M87.37,339.82h4.06l.21,4.2a8.16,8.16,0,0,1,2.77-3.37,7,7,0,0,1,4-1.15,9.66,9.66,0,0,1,2.38.31v4a6.26,6.26,0,0,0-2.08-.4,5.53,5.53,0,0,0-3.8,1.33,7.63,7.63,0,0,0-2.2,3.4,13.6,13.6,0,0,0-.68,4.31v11H87.68v-14.4Q87.68,345.56,87.37,339.82Z" transform="translate(0 -0.02)" style="fill: #fff"/>
    <path d="M107.68,352.76a9.15,9.15,0,0,0,2.59,5.56,7.32,7.32,0,0,0,5.3,2,12.63,12.63,0,0,0,3.68-.54,16.94,16.94,0,0,0,3.71-1.68v4.2a22.21,22.21,0,0,1-3.9,1.35,16.43,16.43,0,0,1-3.68.4,13.31,13.31,0,0,1-5-.9,10.59,10.59,0,0,1-3.83-2.57,11.43,11.43,0,0,1-2.43-4,15.34,15.34,0,0,1-.85-5.21,14.17,14.17,0,0,1,1.37-6.38,10.06,10.06,0,0,1,3.93-4.29,11.17,11.17,0,0,1,5.82-1.52,9.31,9.31,0,0,1,6.1,1.88,10.15,10.15,0,0,1,3.24,4.95,22.63,22.63,0,0,1,1,6.75Zm0-3.42h12.59a11.85,11.85,0,0,0-.9-3.41,5.62,5.62,0,0,0-2-2.37,5.47,5.47,0,0,0-3.19-.9,5.8,5.8,0,0,0-4.33,1.78A8.67,8.67,0,0,0,107.72,349.34Z" transform="translate(0 -0.02)" style="fill: #fff"/>
    <path d="M132.92,352.76a9.15,9.15,0,0,0,2.59,5.56,7.32,7.32,0,0,0,5.3,2,12.63,12.63,0,0,0,3.68-.54,16.94,16.94,0,0,0,3.71-1.68v4.2a22.21,22.21,0,0,1-3.9,1.35,16.43,16.43,0,0,1-3.68.4,13.31,13.31,0,0,1-5-.9,10.59,10.59,0,0,1-3.83-2.57,11.43,11.43,0,0,1-2.43-4,15.34,15.34,0,0,1-.85-5.21A14.17,14.17,0,0,1,129.9,345a10.06,10.06,0,0,1,3.93-4.29,11.17,11.17,0,0,1,5.82-1.52,9.31,9.31,0,0,1,6.1,1.88A10.15,10.15,0,0,1,149,346a22.63,22.63,0,0,1,1,6.75Zm0-3.42h12.59a11.85,11.85,0,0,0-.9-3.41,5.62,5.62,0,0,0-2-2.37,5.47,5.47,0,0,0-3.19-.9,5.8,5.8,0,0,0-4.33,1.78A8.67,8.67,0,0,0,133,349.34Z" transform="translate(0 -0.02)" style="fill: #fff"/>
    <path d="M159.27,339.82l.26,3.8a7.06,7.06,0,0,1,1.72-2.24,7.68,7.68,0,0,1,2.54-1.45,9.58,9.58,0,0,1,3.17-.51,7.72,7.72,0,0,1,4.45,1.22,6.47,6.47,0,0,1,2.51,3.53,8.08,8.08,0,0,1,7.79-4.75,7.92,7.92,0,0,1,4.13,1,6.32,6.32,0,0,1,2.42,2.56,11.13,11.13,0,0,1,1.09,3.59,33.64,33.64,0,0,1,.27,4.5v12.42h-4.39V351.91q0-2.29-.08-3.54a9.69,9.69,0,0,0-.29-2,3.93,3.93,0,0,0-4.06-3.24,5.2,5.2,0,0,0-1.83.33,5,5,0,0,0-1.62,1,6.89,6.89,0,0,0-1.28,1.56,7.94,7.94,0,0,0-.85,2,8.68,8.68,0,0,0-.34,2q-.08,1.13-.08,3.45v10h-4.44V351.32q0-2.46-.06-3.35a7.65,7.65,0,0,0-.27-1.63,4.64,4.64,0,0,0-1.47-2.35,3.73,3.73,0,0,0-2.44-.84,5.25,5.25,0,0,0-3.19,1.05,6.91,6.91,0,0,0-2.23,2.92,10.55,10.55,0,0,0-.8,4.2v12.14h-4.39V350.16q0-6.31-.31-10.34Z" transform="translate(0 -0.02)" style="fill: #fff"/>
    <path d="M200.55,329.31v4.84h-4.79v-4.84Zm-.09,10.51v23.64H196V339.82Z" transform="translate(0 -0.02)" style="fill: #fff"/>
    <path d="M211.22,339.82l.21,3.76a9,9,0,0,1,8.12-4.16,9.15,9.15,0,0,1,4.77,1.09,6.68,6.68,0,0,1,2.64,2.87,12.59,12.59,0,0,1,1.11,3.92,44,44,0,0,1,.26,5.18v11H224V352.81q0-2.55-.08-3.72a13.05,13.05,0,0,0-.3-2.07,5.12,5.12,0,0,0-1.79-2.88,5.18,5.18,0,0,0-3.24-1,6.22,6.22,0,0,0-3.87,1.3,6.82,6.82,0,0,0-2.38,3.54,9,9,0,0,0-.34,1.49,14.43,14.43,0,0,0-.15,1.84q0,1,0,3.47v8.67h-4.39V351.79q0-2-.07-3.7t-.08-4q-.06-2.3-.15-4.29Z" transform="translate(0 -0.02)" style="fill: #fff"/>
    <path d="M255.71,328.63v23.8q0,1.84.12,5.55t.21,5.48h-4.27v-4a9.4,9.4,0,0,1-3.42,3.27,10,10,0,0,1-4.75,1.06,10.14,10.14,0,0,1-5.46-1.46,9.46,9.46,0,0,1-3.62-4.2,15.07,15.07,0,0,1-1.26-6.38,16.09,16.09,0,0,1,.72-5,11.7,11.7,0,0,1,2.14-3.92,9.3,9.3,0,0,1,3.31-2.56,10,10,0,0,1,4.18-.86,9,9,0,0,1,7.84,4.11q0-.35,0-1l-.07-1.26q0-.63,0-1V328.63Zm-11,14.52a6,6,0,0,0-2.71.61,6.39,6.39,0,0,0-2.15,1.77,8.34,8.34,0,0,0-1.41,2.76,11.46,11.46,0,0,0-.49,3.4,9.4,9.4,0,0,0,1.86,6,5.82,5.82,0,0,0,4.76,2.35A6,6,0,0,0,248,359a7.41,7.41,0,0,0,2.45-3,10.12,10.12,0,0,0,.9-4.28,10.37,10.37,0,0,0-.88-4.31,7.46,7.46,0,0,0-2.43-3.07A5.72,5.72,0,0,0,244.67,343.15Z" transform="translate(0 -0.02)" style="fill: #fff"/>
    <path d="M269.12,333v6.92h6.28v3.42h-6.28v9.27a27.08,27.08,0,0,0,.28,4.65,3.1,3.1,0,0,0,1.17,2A3.87,3.87,0,0,0,273,360a6.47,6.47,0,0,0,2.86-.73v3.8a13.35,13.35,0,0,1-4.07.67,7.3,7.3,0,0,1-4.64-1.25,5.58,5.58,0,0,1-2-3.28,25.83,25.83,0,0,1-.44-5.27v-10.6H259.3v-3.42h5.43v-5.43Z" transform="translate(0 -0.02)" style="fill: #fff"/>
    <path d="M280.58,339.82h4.06l.21,4.2a8.16,8.16,0,0,1,2.77-3.37,7,7,0,0,1,4-1.15,9.65,9.65,0,0,1,2.38.31v4a6.25,6.25,0,0,0-2.08-.4,5.53,5.53,0,0,0-3.8,1.33,7.63,7.63,0,0,0-2.2,3.4,13.59,13.59,0,0,0-.69,4.31v11h-4.34v-14.4Q280.88,345.56,280.58,339.82Z" transform="translate(0 -0.02)" style="fill: #fff"/>
    <path d="M320.72,351.7a13.17,13.17,0,0,1-1.55,6.42,11,11,0,0,1-4.35,4.4,12.66,12.66,0,0,1-6.3,1.57,12.09,12.09,0,0,1-6.19-1.59A11.28,11.28,0,0,1,298,358a13.06,13.06,0,0,1-1.56-6.34,13.74,13.74,0,0,1,.89-5,11.74,11.74,0,0,1,2.53-4,11.42,11.42,0,0,1,3.88-2.61,12.51,12.51,0,0,1,4.81-.92,13,13,0,0,1,4.85.9,11.17,11.17,0,0,1,3.9,2.6,11.53,11.53,0,0,1,2.53,4A14,14,0,0,1,320.72,351.7Zm-4.65.11a11.91,11.91,0,0,0-.56-3.66A8.81,8.81,0,0,0,314,345.2a7,7,0,0,0-2.36-1.88,6.93,6.93,0,0,0-8.34,1.89,9.71,9.71,0,0,0-2.14,6.46,10.86,10.86,0,0,0,1,4.63,7.52,7.52,0,0,0,2.67,3.19,6.87,6.87,0,0,0,3.88,1.13,6.74,6.74,0,0,0,3.8-1.12,7.59,7.59,0,0,0,2.67-3.16A10.43,10.43,0,0,0,316.07,351.81Z" transform="translate(0 -0.02)" style="fill: #fff"/>
    <path d="M330,339.82l.21,3.76a9,9,0,0,1,8.12-4.16,9.15,9.15,0,0,1,4.77,1.09,6.68,6.68,0,0,1,2.64,2.87,12.59,12.59,0,0,1,1.11,3.92,44,44,0,0,1,.26,5.18v11h-4.34V352.81q0-2.55-.08-3.72a13.05,13.05,0,0,0-.3-2.07,5.12,5.12,0,0,0-1.79-2.88,5.18,5.18,0,0,0-3.24-1,6.22,6.22,0,0,0-3.87,1.3,6.82,6.82,0,0,0-2.38,3.54,9,9,0,0,0-.34,1.49,14.43,14.43,0,0,0-.15,1.84q0,1,0,3.47v8.67h-4.39V351.79q0-2-.07-3.7t-.08-4q-.06-2.3-.15-4.29Z" transform="translate(0 -0.02)" style="fill: #fff"/>
    <path d="M358.05,329.31v4.84h-4.79v-4.84ZM358,339.82v23.64h-4.42V339.82Z" transform="translate(0 -0.02)" style="fill: #fff"/>
    <path d="M380.39,340.48l-.28,3.87a8.35,8.35,0,0,0-4.32-1.06,8.22,8.22,0,0,0-4.11,1,7.26,7.26,0,0,0-2.86,2.89,8.67,8.67,0,0,0-1,4.23,9.67,9.67,0,0,0,1,4.43,7.37,7.37,0,0,0,2.77,3,7.77,7.77,0,0,0,4.12,1.09,8.19,8.19,0,0,0,2.5-.35,11.46,11.46,0,0,0,2.43-1.16l.35,4a13.11,13.11,0,0,1-2.73.91,14.74,14.74,0,0,1-3.09.3,12.83,12.83,0,0,1-6.28-1.51,10.47,10.47,0,0,1-4.24-4.24,13,13,0,0,1-1.49-6.34,12.62,12.62,0,0,1,1.54-6.22,11.17,11.17,0,0,1,4.26-4.34,11.93,11.93,0,0,1,6.08-1.57A15.28,15.28,0,0,1,380.39,340.48Z" transform="translate(0 -0.02)" style="fill: #fff"/>
  </g>
  <path d="M196.79,143V65.13h82.16V143l-43.7,43.7h-143V143ZM134.92,0h144v42.7H174.38v77.91H92.22V42.72Z" transform="translate(0 -0.02)" style="fill: #fff"/>
</svg>
