<svg id="Calque_1" data-name="Calque 1" xmlns="http://www.w3.org/2000/svg" viewBox="0 0 512 511.85">
  <title>logo evipost by freemindtronic #26aae1</title>
  <path d="M149.21,149.27a988.27,988.27,0,0,1,82.61-73.83C179.77,37.57,131.56,12.54,92.06.06A305.21,305.21,0,0,0,0,92.28C12.48,131.7,37.95,180,75.23,231.88A987.9,987.9,0,0,1,149.21,149.27Z" transform="translate(0 -0.06)" style="fill: #26aae1"/>
  <path d="M362.79,362.64a988.34,988.34,0,0,1-82.61,73.83c51.68,37.65,100.19,62.83,139.61,75.3A305.13,305.13,0,0,0,512,419.48c-12.48-39.42-37.65-87.71-75.3-139.68A988.19,988.19,0,0,1,362.79,362.64Z" transform="translate(0 -0.06)" style="fill: #26aae1"/>
  <path d="M149.21,362.64a988.19,988.19,0,0,1-73.83-82.69C37.73,331.63,12.62,380.13.07,419.63a305.21,305.21,0,0,0,92.29,92.29c39.42-12.48,87.71-37.65,139.61-75.3A987.74,987.74,0,0,1,149.21,362.64Z" transform="translate(0 -0.06)" style="fill: #26aae1"/>
  <path d="M362.79,149.27a987.89,987.89,0,0,1,73.83,82.61c37.65-51.68,62.75-100.19,75.23-139.61A305.21,305.21,0,0,0,419.71.06C380.22,12.54,332,37.49,280,75.22A987.23,987.23,0,0,1,362.79,149.27Z" transform="translate(0 -0.06)" style="fill: #26aae1"/>
</svg>
