<svg xmlns="http://www.w3.org/2000/svg" viewBox="0 0 328.4 54.35"><g><g><path d="M90.66,43.91V21.63h14.59v3.84H95.32v6h9.06v3.69H95.32v8.77Z" transform="translate(-11.35 -6.69)" style="fill:#fff"/><path d="M110.15,27.36h4.35v3h.09a4,4,0,0,1,3.94-3.24,4.61,4.61,0,0,1,1.28.17v4a4.64,4.64,0,0,0-1.64-.26c-2.22,0-3.52,1.36-3.52,3.69v9.25h-4.51Z" transform="translate(-11.35 -6.69)" style="fill:#fff"/><path d="M138.75,38.85c-.49,3.24-3.46,5.42-7.55,5.42-5.1,0-8.15-3.26-8.15-8.55S126.13,27,131,27s7.86,3.26,7.86,8.29v1.37H127.47V37a3.68,3.68,0,0,0,3.8,4,3.3,3.3,0,0,0,3.34-2.08Zm-11.23-4.94h7a3.43,3.43,0,0,0-3.47-3.57A3.58,3.58,0,0,0,127.52,33.91Z" transform="translate(-11.35 -6.69)" style="fill:#fff"/><path d="M158.84,38.85c-.49,3.24-3.46,5.42-7.55,5.42-5.1,0-8.15-3.26-8.15-8.55s3.09-8.71,8-8.71S159,30.26,159,35.3v1.37H147.57V37a3.68,3.68,0,0,0,3.8,4,3.3,3.3,0,0,0,3.34-2.08Zm-11.23-4.94h7a3.43,3.43,0,0,0-3.47-3.57A3.58,3.58,0,0,0,147.61,33.91Z" transform="translate(-11.35 -6.69)" style="fill:#fff"/><path d="M163.83,27.36h4.35v3h.09a4.86,4.86,0,0,1,4.72-3.3,4.4,4.4,0,0,1,4.62,3.4h.09a5.49,5.49,0,0,1,10.56,2.16v11.3h-4.51V33.74c0-1.91-1-3-2.7-3a2.81,2.81,0,0,0-2.84,3.09V43.91h-4.34V33.6a2.53,2.53,0,0,0-2.67-2.83,2.88,2.88,0,0,0-2.87,3.15v10h-4.51Z" transform="translate(-11.35 -6.69)" style="fill:#fff"/><path d="M193.59,23.21A2.41,2.41,0,1,1,196,25.54,2.34,2.34,0,0,1,193.59,23.21Zm.15,4.15h4.51V43.91h-4.51Z" transform="translate(-11.35 -6.69)" style="fill:#fff"/><path d="M203.78,27.36h4.35v2.95h.09a5.23,5.23,0,0,1,5.17-3.26c3.67,0,5.74,2.32,5.74,6.19V43.91h-4.51V34.19c0-2.16-1-3.4-3-3.4s-3.3,1.48-3.3,3.63v9.5h-4.51Z" transform="translate(-11.35 -6.69)" style="fill:#fff"/><path d="M223.93,35.61c0-5.25,2.62-8.51,6.78-8.51a5.32,5.32,0,0,1,5,3.1h.09V21.63h4.51V43.91h-4.45V41.07h-.08a5.46,5.46,0,0,1-5.16,3.1C226.54,44.18,223.93,40.9,223.93,35.61Zm4.62,0c0,3,1.39,4.91,3.66,4.91s3.67-1.88,3.67-4.91-1.44-4.93-3.67-4.93S228.55,32.61,228.55,35.64Z" transform="translate(-11.35 -6.69)" style="fill:#fff"/><path d="M251.62,23.55v3.81h3.06v3.4h-3.06v7.92c0,1.27.62,1.87,1.95,1.87a7.21,7.21,0,0,0,1.1-.08v3.32a10.39,10.39,0,0,1-2.15.19c-3.89,0-5.4-1.3-5.4-4.53V30.76h-2.33v-3.4h2.33V23.55Z" transform="translate(-11.35 -6.69)" style="fill:#fff"/><path d="M259.68,27.36H264v3h.09a4,4,0,0,1,3.94-3.24,4.61,4.61,0,0,1,1.28.17v4a4.64,4.64,0,0,0-1.64-.26c-2.22,0-3.52,1.36-3.52,3.69v9.25h-4.51Z" transform="translate(-11.35 -6.69)" style="fill:#fff"/><path d="M272.57,35.62c0-5.36,3.24-8.62,8.2-8.62s8.2,3.24,8.2,8.62-3.2,8.65-8.2,8.65S272.57,41.06,272.57,35.62Zm11.81,0c0-3.29-1.42-5.19-3.61-5.19s-3.63,1.9-3.63,5.19,1.41,5.19,3.63,5.19S284.39,39,284.39,35.64Z" transform="translate(-11.35 -6.69)" style="fill:#fff"/><path d="M293.82,27.36h4.35v2.95h.09a5.23,5.23,0,0,1,5.17-3.26c3.67,0,5.74,2.32,5.74,6.19V43.91h-4.51V34.19c0-2.16-1-3.4-3-3.4s-3.3,1.48-3.3,3.63v9.5h-4.51Z" transform="translate(-11.35 -6.69)" style="fill:#fff"/><path d="M314.5,23.21a2.41,2.41,0,1,1,2.41,2.33A2.34,2.34,0,0,1,314.5,23.21Zm.15,4.15h4.51V43.91h-4.51Z" transform="translate(-11.35 -6.69)" style="fill:#fff"/><path d="M335.55,33.52a3.21,3.21,0,0,0-3.27-3c-2.22,0-3.61,1.88-3.61,5.08s1.39,5.11,3.63,5.11a3.11,3.11,0,0,0,3.26-2.89h4.2c-.23,3.91-3.15,6.42-7.5,6.42-5,0-8.15-3.24-8.15-8.65S327.26,27,332.21,27c4.48,0,7.32,2.76,7.52,6.52Z" transform="translate(-11.35 -6.69)" style="fill:#fff"/></g><g><path d="M27.2,22.53A105,105,0,0,1,36,14.67a54.4,54.4,0,0,0-14.84-8,32.41,32.41,0,0,0-9.78,9.79,54.67,54.67,0,0,0,8,14.83A104.91,104.91,0,0,1,27.2,22.53Z" transform="translate(-11.35 -6.69)" style="fill:#0073b6"/><path d="M49.86,45.19A105,105,0,0,1,41.09,53a54.65,54.65,0,0,0,14.83,8,32.41,32.41,0,0,0,9.8-9.8,54.65,54.65,0,0,0-8-14.83A104.94,104.94,0,0,1,49.86,45.19Z" transform="translate(-11.35 -6.69)" style="fill:#0073b6"/><path d="M27.2,45.19a104.94,104.94,0,0,1-7.85-8.78,54.65,54.65,0,0,0-8,14.83,32.41,32.41,0,0,0,9.8,9.8A54.65,54.65,0,0,0,36,53,104.9,104.9,0,0,1,27.2,45.19Z" transform="translate(-11.35 -6.69)" style="fill:#0073b6"/><path d="M49.86,22.53a104.91,104.91,0,0,1,7.85,8.78,54.67,54.67,0,0,0,8-14.83,32.41,32.41,0,0,0-9.78-9.79,54.39,54.39,0,0,0-14.84,8A104.85,104.85,0,0,1,49.86,22.53Z" transform="translate(-11.35 -6.69)" style="fill:#0073b6"/></g></g></svg>
