<svg xmlns="http://www.w3.org/2000/svg" viewBox="0 0 328.4 54.35"><g fill="#fff"><path d="M79.31 37.22V14.94H93.9v3.84h-9.93v6h9.06v3.69h-9.06v8.77zM98.8 20.67h4.35v3h.09a4 4 0 013.94-3.24 4.61 4.61 0 011.28.17v4a4.64 4.64 0 00-1.64-.26c-2.22 0-3.52 1.36-3.52 3.69v9.25h-4.51zM127.4 32.16c-.49 3.24-3.46 5.42-7.55 5.42-5.1 0-8.15-3.26-8.15-8.55s3.08-8.72 7.95-8.72 7.86 3.26 7.86 8.29v1.37h-11.39v.34a3.68 3.68 0 003.8 4 3.3 3.3 0 003.34-2.08zm-11.23-4.94h7a3.43 3.43 0 00-3.47-3.57 3.58 3.58 0 00-3.53 3.57zM147.49 32.16c-.49 3.24-3.46 5.42-7.55 5.42-5.1 0-8.15-3.26-8.15-8.55s3.09-8.71 8-8.71 7.86 3.25 7.86 8.29v1.37h-11.43v.33a3.68 3.68 0 003.8 4 3.3 3.3 0 003.34-2.08zm-11.23-4.94h7a3.43 3.43 0 00-3.47-3.57 3.58 3.58 0 00-3.53 3.57zM152.48 20.67h4.35v3h.09a4.86 4.86 0 014.72-3.3 4.4 4.4 0 014.62 3.4h.09a5.49 5.49 0 0110.56 2.16v11.3h-4.51V27.05c0-1.91-1-3-2.7-3a2.81 2.81 0 00-2.84 3.09v10.08h-4.34V26.91a2.53 2.53 0 00-2.67-2.83 2.88 2.88 0 00-2.87 3.15v10h-4.51zM182.24 16.52a2.41 2.41 0 112.41 2.33 2.34 2.34 0 01-2.41-2.33zm.15 4.15h4.51v16.55h-4.51zM192.43 20.67h4.35v2.95h.09a5.23 5.23 0 015.17-3.26c3.67 0 5.74 2.32 5.74 6.19v10.67h-4.51V27.5c0-2.16-1-3.4-3-3.4s-3.3 1.48-3.3 3.63v9.5h-4.51zM212.58 28.92c0-5.25 2.62-8.51 6.78-8.51a5.32 5.32 0 015 3.1h.09v-8.57h4.51v22.28h-4.45v-2.84h-.08a5.46 5.46 0 01-5.16 3.1c-4.08.01-6.69-3.27-6.69-8.56zm4.62 0c0 3 1.39 4.91 3.66 4.91s3.67-1.88 3.67-4.91-1.44-4.93-3.67-4.93-3.66 1.93-3.66 4.96zM240.27 16.86v3.81h3.06v3.4h-3.06v7.92c0 1.27.62 1.87 1.95 1.87a7.21 7.21 0 001.1-.08v3.32a10.39 10.39 0 01-2.15.19c-3.89 0-5.4-1.3-5.4-4.53v-8.69h-2.33v-3.4h2.33v-3.81zM248.33 20.67h4.32v3h.09a4 4 0 013.94-3.24 4.61 4.61 0 011.28.17v4a4.64 4.64 0 00-1.64-.26c-2.22 0-3.52 1.36-3.52 3.69v9.25h-4.51zM261.22 28.93c0-5.36 3.24-8.62 8.2-8.62s8.2 3.24 8.2 8.62-3.2 8.65-8.2 8.65-8.2-3.21-8.2-8.65zm11.81 0c0-3.29-1.42-5.19-3.61-5.19s-3.63 1.9-3.63 5.19 1.41 5.19 3.63 5.19 3.62-1.81 3.62-5.17zM282.47 20.67h4.35v2.95h.09a5.23 5.23 0 015.17-3.26c3.67 0 5.74 2.32 5.74 6.19v10.67h-4.51V27.5c0-2.16-1-3.4-3-3.4s-3.3 1.48-3.3 3.63v9.5h-4.51zM303.15 16.52a2.41 2.41 0 112.41 2.33 2.34 2.34 0 01-2.41-2.33zm.15 4.15h4.51v16.55h-4.51zM324.2 26.83a3.21 3.21 0 00-3.27-3c-2.22 0-3.61 1.88-3.61 5.08s1.39 5.11 3.63 5.11a3.11 3.11 0 003.26-2.89h4.2c-.23 3.91-3.15 6.42-7.5 6.42-5 0-8.15-3.24-8.15-8.65s3.15-8.59 8.1-8.59c4.48 0 7.32 2.76 7.52 6.52z"/></g><g fill="#0073b6"><path d="M15.85 15.84a105 105 0 018.8-7.86 54.4 54.4 0 00-14.84-8A32.41 32.41 0 00.03 9.77a54.67 54.67 0 008 14.83 104.91 104.91 0 017.82-8.76zM38.51 38.5a105 105 0 01-8.77 7.81 54.65 54.65 0 0014.83 8 32.41 32.41 0 009.8-9.8 54.65 54.65 0 00-8-14.83 104.94 104.94 0 01-7.86 8.82zM15.85 38.5A104.94 104.94 0 018 29.72a54.65 54.65 0 00-8 14.83 32.41 32.41 0 009.8 9.8 54.65 54.65 0 0014.85-8.04 104.9 104.9 0 01-8.8-7.81zM38.51 15.84a104.91 104.91 0 017.85 8.78 54.67 54.67 0 008-14.83A32.41 32.41 0 0044.58 0a54.39 54.39 0 00-14.84 8 104.85 104.85 0 018.77 7.84z"/></g></svg>
